<mxfile host="65bd71144e">
    <diagram id="VkSSxHRZkwBxCya5JCqt" name="Page-1">
        <mxGraphModel dx="3715" dy="1693" grid="0" gridSize="10" guides="1" tooltips="1" connect="1" arrows="1" fold="1" page="0" pageScale="1" pageWidth="3300" pageHeight="4681" background="#1A1A1A" math="0" shadow="0">
            <root>
                <mxCell id="0"/>
                <mxCell id="1" parent="0"/>
                <mxCell id="7" style="edgeStyle=none;html=1;fontColor=#990099;endArrow=none;endFill=0;strokeWidth=3;strokeColor=#990099;startArrow=open;startFill=0;" edge="1" parent="1" source="3" target="2">
                    <mxGeometry relative="1" as="geometry">
                        <mxPoint x="795" y="455" as="sourcePoint"/>
                    </mxGeometry>
                </mxCell>
                <mxCell id="19" style="edgeStyle=none;html=1;fontColor=#FF33FF;endArrow=none;endFill=0;strokeColor=#FF33FF;strokeWidth=3;startArrow=open;startFill=0;" edge="1" parent="1" source="2" target="13">
                    <mxGeometry relative="1" as="geometry"/>
                </mxCell>
                <mxCell id="2" value="" style="ellipse;whiteSpace=wrap;html=1;aspect=fixed;fillColor=#FF33FF;strokeColor=#FF33FF;" vertex="1" parent="1">
                    <mxGeometry x="848" y="489" width="80" height="80" as="geometry"/>
                </mxCell>
                <mxCell id="8" style="edgeStyle=none;html=1;fontColor=#990099;endArrow=none;endFill=0;strokeColor=#990099;strokeWidth=3;startArrow=open;startFill=0;" edge="1" parent="1" source="3" target="5">
                    <mxGeometry relative="1" as="geometry"/>
                </mxCell>
                <mxCell id="9" style="edgeStyle=none;html=1;fontColor=#990099;endArrow=none;endFill=0;strokeColor=#990099;strokeWidth=3;startArrow=open;startFill=0;" edge="1" parent="1" source="3" target="6">
                    <mxGeometry relative="1" as="geometry"/>
                </mxCell>
                <mxCell id="3" value="" style="ellipse;whiteSpace=wrap;html=1;aspect=fixed;fillColor=#990099;strokeColor=#990099;" vertex="1" parent="1">
                    <mxGeometry x="848" y="330" width="80" height="80" as="geometry"/>
                </mxCell>
                <mxCell id="4" value="item 1.0.0-dev" style="text;html=1;strokeColor=none;fillColor=none;align=center;verticalAlign=middle;whiteSpace=wrap;rounded=0;fontColor=#990099;fontStyle=1" vertex="1" parent="1">
                    <mxGeometry x="937" y="353.5" width="95" height="33" as="geometry"/>
                </mxCell>
                <mxCell id="5" value="" style="ellipse;whiteSpace=wrap;html=1;aspect=fixed;fillColor=#FF33FF;strokeColor=#FF33FF;" vertex="1" parent="1">
                    <mxGeometry x="952" y="485" width="80" height="80" as="geometry"/>
                </mxCell>
                <mxCell id="20" style="edgeStyle=none;html=1;fontColor=#FF33FF;endArrow=none;endFill=0;strokeColor=#FF33FF;strokeWidth=3;startArrow=open;startFill=0;" edge="1" parent="1" source="6" target="14">
                    <mxGeometry relative="1" as="geometry"/>
                </mxCell>
                <mxCell id="6" value="" style="ellipse;whiteSpace=wrap;html=1;aspect=fixed;fillColor=#FF33FF;strokeColor=#FF33FF;" vertex="1" parent="1">
                    <mxGeometry x="1056" y="489" width="80" height="80" as="geometry"/>
                </mxCell>
                <mxCell id="10" value="item 1.0.0-dev" style="text;html=1;strokeColor=none;fillColor=none;align=center;verticalAlign=middle;whiteSpace=wrap;rounded=0;fontColor=#FF33FF;fontStyle=1" vertex="1" parent="1">
                    <mxGeometry x="735" y="508.5" width="95" height="33" as="geometry"/>
                </mxCell>
                <mxCell id="11" value="item 1.0.0-dev" style="text;html=1;strokeColor=none;fillColor=none;align=center;verticalAlign=middle;whiteSpace=wrap;rounded=0;fontColor=#FF33FF;fontStyle=1" vertex="1" parent="1">
                    <mxGeometry x="944.5" y="576" width="95" height="33" as="geometry"/>
                </mxCell>
                <mxCell id="12" value="item 1.0.0-dev" style="text;html=1;strokeColor=none;fillColor=none;align=center;verticalAlign=middle;whiteSpace=wrap;rounded=0;fontColor=#FF33FF;fontStyle=1" vertex="1" parent="1">
                    <mxGeometry x="1146" y="512.5" width="95" height="33" as="geometry"/>
                </mxCell>
                <mxCell id="13" value="" style="ellipse;whiteSpace=wrap;html=1;aspect=fixed;fillColor=#FF99FF;strokeColor=#FF99FF;" vertex="1" parent="1">
                    <mxGeometry x="848" y="646" width="80" height="80" as="geometry"/>
                </mxCell>
                <mxCell id="14" value="" style="ellipse;whiteSpace=wrap;html=1;aspect=fixed;fillColor=#FF99FF;strokeColor=#FF99FF;" vertex="1" parent="1">
                    <mxGeometry x="1056" y="642" width="80" height="80" as="geometry"/>
                </mxCell>
                <mxCell id="16" value="item 1.0.0-dev" style="text;html=1;strokeColor=none;fillColor=none;align=center;verticalAlign=middle;whiteSpace=wrap;rounded=0;fontColor=#FF99FF;fontStyle=1" vertex="1" parent="1">
                    <mxGeometry x="840.5" y="737" width="95" height="33" as="geometry"/>
                </mxCell>
                <mxCell id="17" value="item 1.0.0-dev" style="text;html=1;strokeColor=none;fillColor=none;align=center;verticalAlign=middle;whiteSpace=wrap;rounded=0;fontColor=#FF99FF;fontStyle=1" vertex="1" parent="1">
                    <mxGeometry x="1048.5" y="737" width="95" height="33" as="geometry"/>
                </mxCell>
                <mxCell id="22" style="edgeStyle=none;html=1;fontColor=#990099;endArrow=none;endFill=0;strokeWidth=3;strokeColor=#990099;startArrow=open;startFill=0;" edge="1" parent="1" source="27" target="24">
                    <mxGeometry relative="1" as="geometry">
                        <mxPoint x="771" y="1012" as="sourcePoint"/>
                    </mxGeometry>
                </mxCell>
                <mxCell id="23" style="edgeStyle=none;html=1;fontColor=#FF33FF;endArrow=none;endFill=0;strokeColor=#FF33FF;strokeWidth=3;startArrow=open;startFill=0;" edge="1" parent="1" source="24" target="36">
                    <mxGeometry relative="1" as="geometry"/>
                </mxCell>
                <mxCell id="24" value="" style="ellipse;whiteSpace=wrap;html=1;aspect=fixed;fillColor=#FF33FF;strokeColor=#FF33FF;" vertex="1" parent="1">
                    <mxGeometry x="848" y="1047" width="80" height="80" as="geometry"/>
                </mxCell>
                <mxCell id="25" style="edgeStyle=none;html=1;fontColor=#990099;endArrow=none;endFill=0;strokeColor=#990099;strokeWidth=3;startArrow=open;startFill=0;" edge="1" parent="1" source="27" target="29">
                    <mxGeometry relative="1" as="geometry"/>
                </mxCell>
                <mxCell id="26" style="edgeStyle=none;html=1;fontColor=#990099;endArrow=none;endFill=0;strokeColor=#990099;strokeWidth=3;startArrow=open;startFill=0;" edge="1" parent="1" source="27" target="32">
                    <mxGeometry relative="1" as="geometry"/>
                </mxCell>
                <mxCell id="27" value="" style="ellipse;whiteSpace=wrap;html=1;aspect=fixed;fillColor=#990099;strokeColor=#990099;" vertex="1" parent="1">
                    <mxGeometry x="848" y="888" width="80" height="80" as="geometry"/>
                </mxCell>
                <mxCell id="28" value="item 1.0.1-dev" style="text;html=1;strokeColor=none;fillColor=none;align=center;verticalAlign=middle;whiteSpace=wrap;rounded=0;fontColor=#990099;fontStyle=1" vertex="1" parent="1">
                    <mxGeometry x="937" y="911.5" width="95" height="33" as="geometry"/>
                </mxCell>
                <mxCell id="29" value="" style="ellipse;whiteSpace=wrap;html=1;aspect=fixed;fillColor=#FF33FF;strokeColor=#FF33FF;" vertex="1" parent="1">
                    <mxGeometry x="952" y="1043" width="80" height="80" as="geometry"/>
                </mxCell>
                <mxCell id="30" style="edgeStyle=none;html=1;fontColor=#FF33FF;endArrow=none;endFill=0;strokeColor=#FF33FF;strokeWidth=3;startArrow=open;startFill=0;" edge="1" parent="1" source="32" target="37">
                    <mxGeometry relative="1" as="geometry"/>
                </mxCell>
                <mxCell id="31" style="edgeStyle=none;html=1;fontColor=#FF33FF;endArrow=none;endFill=0;strokeColor=#FF33FF;strokeWidth=3;startArrow=open;startFill=0;" edge="1" parent="1" source="32" target="38">
                    <mxGeometry relative="1" as="geometry"/>
                </mxCell>
                <mxCell id="32" value="" style="ellipse;whiteSpace=wrap;html=1;aspect=fixed;fillColor=#FF33FF;strokeColor=#FF33FF;" vertex="1" parent="1">
                    <mxGeometry x="1056" y="1047" width="80" height="80" as="geometry"/>
                </mxCell>
                <mxCell id="33" value="item 1.0.0-dev" style="text;html=1;strokeColor=none;fillColor=none;align=center;verticalAlign=middle;whiteSpace=wrap;rounded=0;fontColor=#FF33FF;fontStyle=1" vertex="1" parent="1">
                    <mxGeometry x="735" y="1066.5" width="95" height="33" as="geometry"/>
                </mxCell>
                <mxCell id="34" value="item 1.0.0-dev" style="text;html=1;strokeColor=none;fillColor=none;align=center;verticalAlign=middle;whiteSpace=wrap;rounded=0;fontColor=#FF33FF;fontStyle=1" vertex="1" parent="1">
                    <mxGeometry x="944.5" y="1134" width="95" height="33" as="geometry"/>
                </mxCell>
                <mxCell id="35" value="item 1.0.1-dev" style="text;html=1;strokeColor=none;fillColor=none;align=center;verticalAlign=middle;whiteSpace=wrap;rounded=0;fontColor=#FF33FF;fontStyle=1" vertex="1" parent="1">
                    <mxGeometry x="1146" y="1070.5" width="95" height="33" as="geometry"/>
                </mxCell>
                <mxCell id="36" value="" style="ellipse;whiteSpace=wrap;html=1;aspect=fixed;fillColor=#FF99FF;strokeColor=#FF99FF;" vertex="1" parent="1">
                    <mxGeometry x="848" y="1204" width="80" height="80" as="geometry"/>
                </mxCell>
                <mxCell id="37" value="" style="ellipse;whiteSpace=wrap;html=1;aspect=fixed;fillColor=#FF99FF;strokeColor=#FF99FF;" vertex="1" parent="1">
                    <mxGeometry x="1056" y="1200" width="80" height="80" as="geometry"/>
                </mxCell>
                <mxCell id="38" value="" style="ellipse;whiteSpace=wrap;html=1;aspect=fixed;fillColor=#FF99FF;strokeColor=#FF99FF;" vertex="1" parent="1">
                    <mxGeometry x="1167.5" y="1204" width="80" height="80" as="geometry"/>
                </mxCell>
                <mxCell id="39" value="item 1.0.0-dev" style="text;html=1;strokeColor=none;fillColor=none;align=center;verticalAlign=middle;whiteSpace=wrap;rounded=0;fontColor=#FF99FF;fontStyle=1" vertex="1" parent="1">
                    <mxGeometry x="840.5" y="1295" width="95" height="33" as="geometry"/>
                </mxCell>
                <mxCell id="40" value="item 1.0.0-dev" style="text;html=1;strokeColor=none;fillColor=none;align=center;verticalAlign=middle;whiteSpace=wrap;rounded=0;fontColor=#FF99FF;fontStyle=1" vertex="1" parent="1">
                    <mxGeometry x="1048.5" y="1295" width="95" height="33" as="geometry"/>
                </mxCell>
                <mxCell id="41" value="item 1.0.0-dev" style="text;html=1;strokeColor=none;fillColor=none;align=center;verticalAlign=middle;whiteSpace=wrap;rounded=0;fontColor=#FF99FF;fontStyle=1" vertex="1" parent="1">
                    <mxGeometry x="1160" y="1295" width="95" height="33" as="geometry"/>
                </mxCell>
                <mxCell id="42" value="the specification of a task is in terms of other tasks. This happens recursively until items that can be affected execution time are found." style="text;html=1;strokeColor=none;fillColor=none;align=left;verticalAlign=middle;whiteSpace=wrap;rounded=0;fontColor=#990099;fontStyle=1" vertex="1" parent="1">
                    <mxGeometry x="1048.5" y="335" width="195" height="75" as="geometry"/>
                </mxCell>
                <mxCell id="46" value="✔️" style="text;html=1;strokeColor=none;fillColor=none;align=center;verticalAlign=middle;whiteSpace=wrap;rounded=0;fontColor=#FF99FF;fontSize=16;" vertex="1" parent="1">
                    <mxGeometry x="1081.5" y="666" width="29" height="32" as="geometry"/>
                </mxCell>
                <mxCell id="47" value="while executing this task, another task is understood to be required. This will increment recursively the versions of the parent tasks." style="text;html=1;strokeColor=none;fillColor=none;align=left;verticalAlign=middle;whiteSpace=wrap;rounded=0;fontColor=#FF33FF;fontStyle=1" vertex="1" parent="1">
                    <mxGeometry x="1158.75" y="957" width="163" height="86" as="geometry"/>
                </mxCell>
                <mxCell id="48" value="✔️" style="text;html=1;strokeColor=none;fillColor=none;align=center;verticalAlign=middle;whiteSpace=wrap;rounded=0;fontColor=#FF99FF;fontSize=16;" vertex="1" parent="1">
                    <mxGeometry x="1081.5" y="1224" width="29" height="32" as="geometry"/>
                </mxCell>
            </root>
        </mxGraphModel>
    </diagram>
</mxfile>